# xmcd
#
# Track frame offsets: 
#        150
#        17266
#        31934
#        43486
#        56257
#        78867
#        102696
#        114890
#        127779
#        140112
#        154770
#        164834
#        175170
#        188546
#
# Disc length: 2725 seconds
#
# Revision: 2
# Processed by: cddbd v1.5.2PL0 Copyright (c) Steve Scherf et al.
# Submitted via: ExactAudioCopyFreeDBPlugin 1.0
#
DISCID=af0aa30e
DTITLE=Various Artist - The Great Voice of Soul:  45 Original Soul Cl
DTITLE=assics
DYEAR=1998
DGENRE=Soul
TTITLE0=The Platters - Only You
TTITLE1=Lloyd Price - Stagger Lee
TTITLE2=Martha Reeves - Jimmy Mack
TTITLE3=Sam and Dave - Soul Man
TTITLE4=Leroy Hutson - Lucky Fellow
TTITLE5=94 East - Just Another Sucker (ft Prince)
TTITLE6=The Shirelles - Will You Love Me Tomorrow
TTITLE7=Percy Sledge - When A Man Loves a Woman
TTITLE8=Jackie Wilson - Reet Petite
TTITLE9=Joe Tex - Who Gave Birth to the Funk
TTITLE10=Betty Everett - Shoop Shoop Song
TTITLE11=Brenton Wood - Gimme Little Sign
TTITLE12=The Temptations - My Girl
TTITLE13=Luther Ingram - If Loving You is Wrong
EXTD=DTKBOX79
EXTT0=
EXTT1=
EXTT2=
EXTT3=
EXTT4=
EXTT5=
EXTT6=
EXTT7=
EXTT8=
EXTT9=
EXTT10=
EXTT11=
EXTT12=
EXTT13=
PLAYORDER=
